<svg xmlns="http://www.w3.org/2000/svg" height="512pt" viewBox="0 -124 512.00028 512" width="512pt"><path d="m476.441406 44.578125c-30.507812-18.671875-73.335937-13.832031-93.082031 18.402344-15.496094 25.296875-11.109375 60.402343 15.222656 76.539062 11.347657 6.953125 24.726563 9.066407 37.6875 5.945313 22.183594-5.332032 35.894531-27.726563 30.5625-49.910156-3.988281-16.566407-19.339843-27.472657-35.789062-26.453126-18.210938-.976562-25.761719 23.125-10.175781 32.667969 10.375 6.355469 24.019531.542969 26.484374-11.515625 11.277344 11.894532 4.953126 35.835938-14.613281 40.542969-18.632812 4.488281-37.4375-7.03125-41.925781-25.664063-2.824219-11.78125-.902344-23.945312 5.414062-34.277343 22.894532-37.339844 87.007813-25.769531 98.683594 22.839843 13.992188 58.171876-50.5 114.933594-145.867187 107.246094-41.808594-3.363281-82.664063-18.710937-118.425781-39.664062 7.035156-5.257813.867187-16.238282-7.253907-13.074219-16.859375 6.597656-34.628906 8.539063-51.257812 1.769531 1.472656-3.183594 2.667969-7.035156 3.300781-11.027344h35.9375c4.164062 0 7.542969-3.378906 7.542969-7.542968 0-4.164063-3.378907-7.546875-7.542969-7.546875-5.113281 0-30.992188 0-36.117188 0-.691406-3.664063-1.785156-6.988281-3.3125-10.332031 10.953126-4.050782 22.21875-4.691407 33.773438-2.714844l.011719-.011719c12.757812 2.203125 26.308593 7.746094 40.433593 16.550781 3.273438 2.0625 3.460938 5.820313 1.125 8.109375-2.976562 2.917969-3.027343 7.695313-.121093 10.671875 2.917969 2.980469 7.699219 3.03125 10.675781.113282 9.433594-9.242188 7.734375-24.574219-3.691406-31.691407-13.25-8.261719-26.199219-13.984375-38.703125-17.105469 8.339843-13.871093 12.796875-28.851562 15.171875-40.179687 3.082031-14.847656-9.761719-27.417969-24.570313-23.996094-16.257812 3.773438-29.175781 9.125-39.445312 15.3125-3.863281-15.574219-11.21875-29.265625-17.699219-39.175781-10.816406-16.519531-35.667969-8.558594-29.515625 3.109375 1.941406 3.683594 6.507813 5.089844 10.191406 3.148437 2.105469-1.113281 4.953125-.65625 6.699219 2.003907 14.378906 21.984375 23.5625 48.980469 14.054688 73.378906-.101563.261719-.179688.535156-.25.796875-3.558594-1.589844-7.207032-2.722656-11.117188-3.332031 0-11.980469 0-28.539063 0-35.933594 0-4.167969-3.382812-7.546875-7.546875-7.546875s-7.546875 3.378906-7.546875 7.546875v36.117187c-3.808594.714844-7.46875 1.960938-10.320312 3.308594-6.734376-18.101562-3.90625-37.0625 3.632812-54.839844 1.617188-3.832031-.171875-8.261718-4.003906-9.890624-3.835938-1.628907-8.269532.160156-9.890625 4.003906-2.464844 5.816406-4.417969 11.570312-5.824219 17.246094-13.875-8.351563-28.855469-12.820313-40.183594-15.183594-14.851562-3.105469-27.417968 9.769531-23.996094 24.558594 3.773438 16.25 9.125 29.175781 15.324219 39.449218-15.734375 3.914063-29.496093 11.355469-39.1875 17.695313-12.734375 8.332031-12.449219 26.34375.402344 34.335937 11.828125 7.382813 25.085937 13.714844 38.722656 17.082032-7.40625 12.296874-12.3125 26.429687-15.191406 40.203124-2.703125 12.933594 6.796875 24.558594 19.710937 24.558594 6.539063 0 28.371094-6.289062 44.296876-15.867187.179687.746093.382812 1.5.582031 2.246093 1.097656 4.023438 5.242187 6.386719 9.265625 5.292969 4.015625-1.097656 6.390625-5.242187 5.292968-9.257812-3.839843-14.046875-3.949218-28.1875 1.46875-41.519531 3.035157 1.402343 7.027344 2.679687 11.027344 3.300781v35.933593c0 4.167969 3.378906 7.546876 7.542969 7.546876 4.167969 0 7.546875-3.378907 7.546875-7.546876v-36.117187c3.472656-.648437 6.96875-1.753906 10.332031-3.308594 9.328125 25.078125.289063 51.574219-13.824219 74.21875-1.066406 1.707031-2.703124 2.695313-4.496093 2.695313-3.371094 0-4.8125-2.816406-8.539063-9.285156-2.074218-3.613282-6.691406-4.859376-10.304687-2.777344-3.609375 2.082031-4.847657 6.6875-2.777344 10.300781 1.441406 2.503906 2.980469 5.011719 4.578125 7.445313 8.3125 12.699218 26.296875 12.507812 34.347656-.402344 8.261719-13.238282 13.972656-26.1875 17.09375-38.691406 13.875 8.339843 28.851563 12.796874 40.179688 15.167968 15.027344 3.089844 27.402344-9.921875 23.996094-24.566406-3.207032-13.84375-7.566407-25.273438-12.617188-34.699219 42.78125 25.90625 87.15625 41.230469 129.804688 44.660157 40.238281 3.21875 83.277343-3.976563 117.15625-26.800782 64.726562-43.621094 56.785156-116.84375 11.449218-144.613281zm-458.65625 92.003906c-3.53125-2.199219-3.628906-6.609375-.128906-8.910156 22.414062-14.652344 49.273438-24.125 74.175781-13.796875-1.664062 3.726562-2.742187 7.359375-3.328125 11.109375-11.980468 0-28.542968 0-35.9375 0-4.164062 0-7.546875 3.378906-7.546875 7.546875 0 4.164062 3.382813 7.542969 7.546875 7.542969h36.117188c.652344 3.472656 1.753906 6.96875 3.308594 10.332031-25.097657 9.460938-51.621094.25-74.207032-13.824219zm77.015625 62.527344c-10.535156 7.445313-23.984375 13.070313-40.3125 16.851563-4.070312.9375-7.242187-2.125-6.390625-6.207032 2.886719-13.863281 7.898438-28.59375 16.492188-40.714844 7.210937.496094 14.40625.136719 21.808594-1.390624l-15.511719 15.515624c-4.761719 4.757813-1.34375 12.878907 5.332031 12.878907 5.300781 0 6.074219-3.867188 19.859375-16.734375-1.335937 6.71875-1.71875 13.589844-1.277344 19.800781zm-14.046875-128.210937c-2.945312-2.949219-7.726562-2.949219-10.664062 0-2.945313 2.945312-2.945313 7.714843 0 10.664062l14.480468 14.476562c-6.339843-1.257812-12.929687-1.671874-19.769531-1.238281-7.425781-10.535156-13.058593-23.972656-16.84375-40.300781-.941406-4.097656 2.15625-7.234375 6.207031-6.390625 13.855469 2.898437 28.574219 7.898437 40.6875 16.46875-.53125 6.996094-.132812 14.480469 1.367188 21.78125zm62.660156 87.617187c-20.007812 8.707031-38.011718-8.925781-38.011718-15.089844-3.152344-7.25-3.054688-15.324219-.339844-22.085937 0-.019532 0-.027344.019531-.039063 8.296875-21.410156 40.375-26.890625 53.402344-.835937.007813.011718.019531.03125.019531.042968 8.480469 19.488282-8.09375 38.007813-15.089844 38.007813zm25.703126-93.695313c10.523437-7.433593 23.996093-13.070312 40.3125-16.851562 4.0625-.9375 7.234374 2.125 6.378906 6.207031-2.898438 13.84375-7.886719 28.5625-16.449219 40.675781-7.046875-.535156-14.535156-.121093-21.78125 1.367188l15.453125-15.453125c2.949219-2.945313 2.949219-7.726563 0-10.671875-2.945312-2.9375-7.726562-2.9375-10.671875 0l-14.519531 14.515625c1.34375-6.675781 1.71875-13.683594 1.277344-19.789063zm40.625 151c-13.84375-2.898437-28.5625-7.898437-40.675782-16.457031.535156-7.050781.125-14.519531-1.367187-21.773437 14.40625 13.484375 15.433593 17.65625 20.785156 17.65625 6.730469 0 10.0625-8.15625 5.34375-12.875l-14.5-14.5c1.667969.246094 9.269531 1.960937 19.671875 1.269531 6.898438 9.726563 12.894531 22.796875 16.949219 40.300781.9375 4.054688-2.121094 7.234375-6.207031 6.378906zm0 0"/></svg>